<svg width="32" height="32" viewBox="0 0 32 32" fill="none" xmlns="http://www.w3.org/2000/svg">
<path fill-rule="evenodd" clip-rule="evenodd" d="M19 16C19 17.6568 17.6569 19 16 19C14.3431 19 13 17.6568 13 16C13 14.3431 14.3431 13 16 13C17.6569 13 19 14.3431 19 16ZM18 16C18 17.1046 17.1046 18 16 18C14.8954 18 14 17.1046 14 16C14 14.8954 14.8954 14 16 14C17.1046 14 18 14.8954 18 16Z" fill="white" fill-opacity="0.2"/>
<path fill-rule="evenodd" clip-rule="evenodd" d="M14.4861 9.13633C14.931 7.62688 17.069 7.62688 17.5139 9.13633C17.7982 10.1008 18.8998 10.5571 19.7828 10.0761C21.1648 9.3234 22.6766 10.8352 21.9238 12.2172C21.4429 13.1002 21.8992 14.2018 22.8637 14.4861C24.3731 14.931 24.3731 17.069 22.8637 17.5139C21.8992 17.7982 21.4429 18.8998 21.9238 19.7828C22.6766 21.1648 21.1648 22.6766 19.7828 21.9238C18.8998 21.4429 17.7982 21.8992 17.5139 22.8636C17.069 24.3731 14.931 24.3731 14.4861 22.8636C14.2018 21.8992 13.1002 21.4429 12.2172 21.9238C10.8352 22.6766 9.32341 21.1648 10.0762 19.7828C10.5571 18.8998 10.1008 17.7982 9.13635 17.5139C7.62689 17.069 7.62689 14.931 9.13635 14.4861C10.1008 14.2018 10.5571 13.1002 10.0762 12.2172C9.32341 10.8352 10.8352 9.3234 12.2172 10.0761C13.1002 10.5571 14.2018 10.1008 14.4861 9.13633ZM11.7388 10.9543C13.1813 11.74 14.9809 10.9946 15.4453 9.41906C15.6083 8.86597 16.3917 8.86597 16.5547 9.41906C17.0191 10.9946 18.8187 11.74 20.2612 10.9543C20.7675 10.6785 21.3215 11.2325 21.0457 11.7388C20.26 13.1813 21.0054 14.9809 22.5809 15.4453C23.134 15.6083 23.134 16.3917 22.5809 16.5547C21.0054 17.0191 20.26 18.8187 21.0457 20.2612C21.3215 20.7675 20.7675 21.3215 20.2612 21.0457C18.8187 20.2599 17.0191 21.0054 16.5547 22.5809C16.3917 23.134 15.6083 23.134 15.4453 22.5809C14.9809 21.0054 13.1813 20.2599 11.7388 21.0457C11.2325 21.3215 10.6785 20.7675 10.9543 20.2612C11.74 18.8187 10.9946 17.0191 9.41907 16.5547C8.86598 16.3917 8.86598 15.6083 9.41907 15.4453C10.9946 14.9809 11.74 13.1813 10.9543 11.7388C10.6785 11.2325 11.2325 10.6785 11.7388 10.9543Z" fill="white" fill-opacity="0.2"/>
</svg>
