<svg width="32" height="32" viewBox="0 0 32 32" fill="none" xmlns="http://www.w3.org/2000/svg">
<path d="M12.672 11.0098L12.6798 11.0156L15.6538 12.7246C15.5078 13.5403 15.08 14.2856 14.4467 14.8245C13.8032 15.3722 12.9836 15.6739 12.1385 15.6739C11.1843 15.6739 10.2871 15.3009 9.61194 14.6233C8.93708 13.9458 8.56521 13.0447 8.56521 12.087C8.56521 11.1292 8.93708 10.2281 9.61188 9.55059C10.2867 8.87304 11.1838 8.5 12.1385 8.5C12.8677 8.5 13.5687 8.7192 14.166 9.13333C14.7496 9.53807 15.1962 10.1005 15.4581 10.76C15.4914 10.8446 15.5223 10.9315 15.5493 11.0188L14.914 11.3883C14.8921 11.3006 14.8659 11.2133 14.8357 11.1284C14.431 9.9835 13.3467 9.21393 12.1385 9.21393C10.5603 9.21393 9.2764 10.5029 9.2764 12.087C9.2764 13.671 10.5603 14.96 12.1385 14.96C12.7518 14.96 13.3366 14.7674 13.8302 14.4026C14.3136 14.0452 14.6682 13.5556 14.8557 12.9869L14.8576 12.9744L11.3892 10.9824V13.1423L12.585 12.4507L13.2007 12.8038L11.4084 13.8406L10.7747 13.4781V10.6505L11.4076 10.2845L12.6723 11.0102L12.6719 11.0098H12.672Z" fill="white"/>
<path d="M23.5 14.3696C23.5 15.09 22.9161 15.6739 22.1957 15.6739C21.931 15.6739 21.6848 15.5951 21.4792 15.4597C21.2735 15.3242 21.1085 15.1321 21.0063 14.9056L20.0618 12.8129C20.0362 12.7563 19.9793 12.7168 19.9132 12.7168C19.847 12.7168 19.79 12.7563 19.7645 12.813L18.82 14.9056C18.6156 15.3587 18.1599 15.6739 17.6305 15.6739C16.9102 15.6739 16.3262 15.09 16.3262 14.3696C16.3262 14.1049 16.405 13.8587 16.5405 13.653C16.676 13.4474 16.8681 13.2824 17.0946 13.1801L19.1873 12.2357C19.2439 12.2101 19.2833 12.1532 19.2833 12.087C19.2833 12.0208 19.2438 11.9638 19.1872 11.9383L17.0945 10.9938C16.6415 10.7894 16.3261 10.3337 16.3261 9.80435C16.3261 9.08402 16.9102 8.5 17.6305 8.5C17.8952 8.5 18.1415 8.57885 18.3471 8.7143C18.5527 8.84976 18.7177 9.04183 18.82 9.26839L19.7645 11.3611C19.79 11.4177 19.847 11.4571 19.9131 11.4571C19.9792 11.4571 20.0363 11.4176 20.0618 11.361L21.0063 9.26839C21.2107 8.81533 21.6664 8.5 22.1957 8.5C22.9161 8.5 23.5 9.08402 23.5 9.80435C23.5 10.069 23.4212 10.3153 23.2857 10.521C23.1503 10.7266 22.9582 10.8917 22.7317 10.9938L20.6392 11.9383C20.5825 11.9638 20.543 12.0208 20.543 12.087C20.543 12.1613 20.5904 12.2137 20.639 12.2357L22.7317 13.1801C23.1847 13.3846 23.5 13.8403 23.5 14.3696Z" fill="url(#paint0_linear_985_3248)"/>
<path d="M9.31528 16.6522C8.86502 16.6522 8.50007 17.0171 8.50007 17.4674C8.50007 17.9176 8.86502 18.2826 9.31528 18.2826H13.4188L9.09309 21.1021C8.73602 21.3349 8.5 21.7377 8.5 22.1956C8.5 22.916 9.08396 23.5 9.80435 23.5C10.2623 23.5 10.6651 23.2639 10.8978 22.9069L13.7175 18.5812V22.6848C13.7175 23.135 14.0824 23.5 14.5327 23.5C14.9829 23.5 15.3479 23.135 15.3479 22.6848V16.6522H9.31528Z" fill="url(#paint1_linear_985_3248)"/>
<path d="M20.0761 16.3261C18.1851 16.3261 16.6522 17.859 16.6522 19.75V23.1739H20.0761C21.9671 23.1739 23.5 21.641 23.5 19.75C23.5 17.859 21.9671 16.3261 20.0761 16.3261Z" fill="url(#paint2_linear_985_3248)"/>
<defs>
<linearGradient id="paint0_linear_985_3248" x1="23.5" y1="8.5" x2="16.3261" y2="15.6739" gradientUnits="userSpaceOnUse">
<stop offset="0.2969" stop-color="#4DE36E"/>
<stop offset="1" stop-color="#31AFA7"/>
</linearGradient>
<linearGradient id="paint1_linear_985_3248" x1="15.3479" y1="16.6522" x2="8.50006" y2="23.5001" gradientUnits="userSpaceOnUse">
<stop offset="0.3385" stop-color="#FF60D0"/>
<stop offset="1" stop-color="#A638FE"/>
</linearGradient>
<linearGradient id="paint2_linear_985_3248" x1="23.5" y1="16.3261" x2="16.6522" y2="23.1739" gradientUnits="userSpaceOnUse">
<stop offset="0.3281" stop-color="#FBDB00"/>
<stop offset="1" stop-color="#FF9959"/>
</linearGradient>
</defs>
</svg>
