<svg width="20" height="20" viewBox="0 0 20 20" fill="none" xmlns="http://www.w3.org/2000/svg">
<path d="M11 3.5C11 3.22386 10.7761 3 10.5 3C10.2239 3 10 3.22386 10 3.5V12.7929L6.35355 9.14645C6.15829 8.95118 5.84171 8.95118 5.64645 9.14645C5.45118 9.34171 5.45118 9.65829 5.64645 9.85355L10.1464 14.3536C10.3417 14.5488 10.6583 14.5488 10.8536 14.3536L15.3536 9.85355C15.5488 9.65829 15.5488 9.34171 15.3536 9.14645C15.1583 8.95118 14.8417 8.95118 14.6464 9.14645L11 12.7929V3.5Z" fill="white"/>
<path d="M4 17C3.72386 17 3.5 16.7761 3.5 16.5C3.5 16.2239 3.72386 16 4 16H17C17.2761 16 17.5 16.2239 17.5 16.5C17.5 16.7761 17.2761 17 17 17H4Z" fill="white"/>
</svg>
