<svg width="48" height="49" viewBox="0 0 48 49" fill="none" xmlns="http://www.w3.org/2000/svg">
<path fill-rule="evenodd" clip-rule="evenodd" d="M4.43934 43.8107C3.85355 43.2249 3.85355 42.2751 4.43934 41.6893L41.4393 4.68934C42.0251 4.10355 42.9749 4.10355 43.5607 4.68934C44.1464 5.27513 44.1464 6.22487 43.5607 6.81066L40.9963 9.37506C42.7234 9.8178 44 11.3848 44 13.25V38.25C44 40.4591 42.2091 42.25 40 42.25H8.12132L6.56066 43.8107C5.97487 44.3964 5.02513 44.3964 4.43934 43.8107ZM11.1213 39.25H40C40.5523 39.25 41 38.8023 41 38.25V13.25C41 12.6977 40.5523 12.25 40 12.25H38.1213L32.0522 18.3191C33.2764 19.9784 34 22.0297 34 24.25C34 29.7728 29.5228 34.25 24 34.25C21.7797 34.25 19.7284 33.5264 18.0691 32.3022L11.1213 39.25ZM20.2253 30.1461C21.3144 30.8448 22.6099 31.25 24 31.25C27.866 31.25 31 28.116 31 24.25C31 22.8599 30.5948 21.5644 29.8961 20.4753L20.2253 30.1461Z" fill="white" fill-opacity="0.33"/>
<path d="M4 37.8919L7 34.8919V13.25C7 12.6977 7.44772 12.25 8 12.25H13.5194C14.7345 12.25 15.8838 11.6976 16.6428 10.7488L19.1416 7.6253C19.3314 7.38809 19.6187 7.25 19.9225 7.25H28.0775C28.3813 7.25 28.6686 7.38809 28.8584 7.62531L31.262 10.6299L33.3964 8.49548L31.201 5.75122C30.4419 4.80236 29.2926 4.25 28.0775 4.25H19.9225C18.7074 4.25 17.5581 4.80236 16.799 5.75122L14.3002 8.8747C14.1105 9.11191 13.8232 9.25 13.5194 9.25H8C5.79086 9.25 4 11.0409 4 13.25V37.8919Z" fill="white" fill-opacity="0.33"/>
<path d="M14.5027 27.3892L17.0267 24.8652C17.009 24.6625 17 24.4573 17 24.25C17 20.384 20.134 17.25 24 17.25C24.2073 17.25 24.4125 17.259 24.6152 17.2767L27.1392 14.7527C26.1519 14.4265 25.0966 14.25 24 14.25C18.4772 14.25 14 18.7272 14 24.25C14 25.3466 14.1765 26.4019 14.5027 27.3892Z" fill="white" fill-opacity="0.33"/>
</svg>
