<?xml version="1.0" encoding="UTF-8"?>
<svg xmlns="http://www.w3.org/2000/svg" version="1.1" viewBox="0 0 512 512">
  <defs>
    <style>
      .cls-1 {
        fill: #fff;
      }
    </style>
  </defs>
  <!-- Generator: Adobe Illustrator 28.6.0, SVG Export Plug-In . SVG Version: 1.2.0 Build 709)  -->
  <g>
    <g id="Layer_1">
      <path class="cls-1" d="M256,48c114.9,0,208,93.1,208,208s-93.1,208-208,208S48,370.9,48,256,141.1,48,256,48ZM256,512c141.4,0,256-114.6,256-256S397.4,0,256,0,0,114.6,0,256s114.6,256,256,256ZM175,175c-9.4,9.4-9.4,24.6,0,33.9l47,47-47,47c-9.4,9.4-9.4,24.6,0,33.9s24.6,9.4,33.9,0l47-47,47,47c9.4,9.4,24.6,9.4,33.9,0s9.4-24.6,0-33.9l-47-47,47-47c9.4-9.4,9.4-24.6,0-33.9s-24.6-9.4-33.9,0l-47,47-47-47c-9.4-9.4-24.6-9.4-33.9,0Z"/>
    </g>
  </g>
</svg>