<svg width="20" height="20" viewBox="0 0 20 20" fill="none" xmlns="http://www.w3.org/2000/svg">
<path fill-rule="evenodd" clip-rule="evenodd" d="M4 4C4 2.89543 4.89543 2 6 2H10.6716C11.202 2 11.7107 2.21071 12.0858 2.58579L15.4142 5.91421C15.7893 6.28929 16 6.79799 16 7.32843V16C16 17.1046 15.1046 18 14 18H6C4.89543 18 4 17.1046 4 16V4ZM15 16C15 16.5523 14.5523 17 14 17H6C5.44772 17 5 16.5523 5 16V4C5 3.44772 5.44772 3 6 3H10V6C10 7.10457 10.8954 8 12 8H15V16ZM14.9445 7H12C11.4477 7 11 6.55228 11 6V3.05547C11.1412 3.10457 11.271 3.18518 11.3787 3.29289L14.7071 6.62132C14.8148 6.72904 14.8954 6.8588 14.9445 7Z" fill="white"/>
</svg>
