<svg width="48" height="48" viewBox="0 0 48 48" fill="none" xmlns="http://www.w3.org/2000/svg">
<g id="IconCheckmarkCircle">
<g id="Path">
<path fill-rule="evenodd" clip-rule="evenodd" d="M44 24C44 35.0457 35.0457 44 24 44C12.9543 44 4 35.0457 4 24C4 12.9543 12.9543 4 24 4C35.0457 4 44 12.9543 44 24ZM41 24C41 33.3888 33.3888 41 24 41C14.6112 41 7 33.3888 7 24C7 14.6112 14.6112 7 24 7C33.3888 7 41 14.6112 41 24Z" fill="white" fill-opacity="0.33"/>
<path d="M33.5607 17.4393C34.1464 18.0251 34.1464 18.9749 33.5607 19.5607L21.5607 31.5607C20.9749 32.1464 20.0251 32.1464 19.4393 31.5607L13.4393 25.5607C12.8536 24.9749 12.8536 24.0251 13.4393 23.4393C14.0251 22.8536 14.9749 22.8536 15.5607 23.4393L20.5 28.3787L31.4393 17.4393C32.0251 16.8536 32.9749 16.8536 33.5607 17.4393Z" fill="white" fill-opacity="0.33"/>
</g>
</g>
</svg>
