<svg width="20" height="20" viewBox="0 0 20 20" fill="none" xmlns="http://www.w3.org/2000/svg">
<g id="IconMicrophone">
<g id="Path">
<path fill-rule="evenodd" clip-rule="evenodd" d="M10 2C8.34315 2 7 3.34315 7 5V10C7 11.6569 8.34315 13 10 13C11.6569 13 13 11.6569 13 10V5C13 3.34315 11.6569 2 10 2ZM12 10V5C12 3.89543 11.1046 3 10 3C8.89543 3 8 3.89543 8 5V10C8 11.1046 8.89543 12 10 12C11.1046 12 12 11.1046 12 10Z" fill="white"/>
<path d="M5.5 9.5C5.77614 9.5 6 9.72386 6 10C6 10.5253 6.10346 11.0454 6.30448 11.5307C6.5055 12.016 6.80014 12.457 7.17157 12.8284C7.54301 13.1999 7.98396 13.4945 8.46927 13.6955C8.95457 13.8965 9.47471 14 10 14C10.5253 14 11.0454 13.8965 11.5307 13.6955C12.016 13.4945 12.457 13.1999 12.8284 12.8284C13.1999 12.457 13.4945 12.016 13.6955 11.5307C13.8965 11.0454 14 10.5253 14 10C14 9.72386 14.2239 9.5 14.5 9.5C14.7761 9.5 15 9.72386 15 10C15 10.6566 14.8707 11.3068 14.6194 11.9134C14.3681 12.52 13.9998 13.0712 13.5355 13.5355C13.0712 13.9998 12.52 14.3681 11.9134 14.6194C11.4613 14.8067 10.9851 14.9262 10.5 14.9749V17H12.5C12.7761 17 13 17.2239 13 17.5C13 17.7761 12.7761 18 12.5 18H7.5C7.22386 18 7 17.7761 7 17.5C7 17.2239 7.22386 17 7.5 17H9.5V14.9749C9.01492 14.9262 8.53866 14.8067 8.08658 14.6194C7.47995 14.3681 6.92876 13.9998 6.46447 13.5355C6.00017 13.0712 5.63188 12.52 5.3806 11.9134C5.12933 11.3068 5 10.6566 5 10C5 9.72386 5.22386 9.5 5.5 9.5Z" fill="white"/>
</g>
</g>
</svg>
