<svg width="20" height="20" viewBox="0 0 20 20" fill="none" xmlns="http://www.w3.org/2000/svg">
<path fill-rule="evenodd" clip-rule="evenodd" d="M15 7C15 8.10457 14.1046 9 13 9C11.8954 9 11 8.10457 11 7C11 5.89543 11.8954 5 13 5C14.1046 5 15 5.89543 15 7ZM14 7C14 7.55228 13.5523 8 13 8C12.4477 8 12 7.55228 12 7C12 6.44772 12.4477 6 13 6C13.5523 6 14 6.44772 14 7Z" fill="white"/>
<path fill-rule="evenodd" clip-rule="evenodd" d="M3 15C3 16.1046 3.89543 17 5 17H15C16.1046 17 17 16.1046 17 15V5C17 3.89543 16.1046 3 15 3H5C3.89543 3 3 3.89543 3 5V15ZM15 4H5C4.44772 4 4 4.44772 4 5V11.2929L7.14645 8.14645C7.34171 7.95118 7.65829 7.95118 7.85355 8.14645L11.5 11.7929L13.1464 10.1464C13.3417 9.95118 13.6583 9.95118 13.8536 10.1464L16 12.2929V5C16 4.44772 15.5523 4 15 4ZM16 15V13.7071L13.5 11.2071L11.8536 12.8536C11.6583 13.0488 11.3417 13.0488 11.1464 12.8536L7.5 9.20711L4 12.7071V15C4 15.5523 4.44772 16 5 16H15C15.5523 16 16 15.5523 16 15Z" fill="white"/>
</svg>
