<svg width="20" height="20" viewBox="0 0 20 20" fill="none" xmlns="http://www.w3.org/2000/svg">
<path fill-rule="evenodd" clip-rule="evenodd" d="M14.95 6H17.5C17.7761 6 18 6.22386 18 6.5C18 6.77614 17.7761 7 17.5 7H14.95C14.7184 8.14112 13.7095 9 12.5 9C11.2905 9 10.2816 8.14112 10.05 7H2.5C2.22386 7 2 6.77614 2 6.5C2 6.22386 2.22386 6 2.5 6H10.05C10.2816 4.85888 11.2905 4 12.5 4C13.7095 4 14.7184 4.85888 14.95 6ZM12.5 8C13.3284 8 14 7.32843 14 6.5C14 5.67157 13.3284 5 12.5 5C11.6716 5 11 5.67157 11 6.5C11 7.32843 11.6716 8 12.5 8Z" fill="white"/>
<path fill-rule="evenodd" clip-rule="evenodd" d="M9.94999 13C9.71836 11.8589 8.70948 11 7.5 11C6.29052 11 5.28164 11.8589 5.05001 13H2.5C2.22386 13 2 13.2239 2 13.5C2 13.7761 2.22386 14 2.5 14H5.05001C5.28164 15.1411 6.29052 16 7.5 16C8.70948 16 9.71836 15.1411 9.94999 14H17.5C17.7761 14 18 13.7761 18 13.5C18 13.2239 17.7761 13 17.5 13H9.94999ZM7.5 15C8.32843 15 9 14.3284 9 13.5C9 12.6716 8.32843 12 7.5 12C6.67157 12 6 12.6716 6 13.5C6 14.3284 6.67157 15 7.5 15Z" fill="white"/>
</svg>
