<svg width="48" height="48" viewBox="0 0 48 48" fill="none" xmlns="http://www.w3.org/2000/svg">
<path d="M40 5.5C40 4.67157 39.3284 4 38.5 4C37.6716 4 37 4.67157 37 5.5V11.5501C34.9762 9.43687 32.4603 7.84138 29.6643 6.91445C26.2464 5.78133 22.5671 5.69937 19.1022 6.67918C15.6372 7.65898 12.5457 9.6555 10.2273 12.4107C7.90888 15.1659 6.47011 18.5531 6.09694 22.1346C6.01109 22.9586 6.60945 23.6961 7.43341 23.782C8.25738 23.8678 8.99493 23.2695 9.08079 22.4455C9.39176 19.4609 10.5907 16.6383 12.5227 14.3423C14.4548 12.0463 17.031 10.3825 19.9185 9.56598C22.806 8.74948 25.872 8.81777 28.7202 9.76204C30.7659 10.4402 32.6318 11.5479 34.1981 13H29.5C28.6716 13 28 13.6716 28 14.5C28 15.3284 28.6716 16 29.5 16H38.5C39.3284 16 40 15.3284 40 14.5V5.5Z" fill="white" fill-opacity="0.33"/>
<path d="M19.2798 38.238C22.1281 39.1822 25.1941 39.2505 28.0816 38.434C30.9691 37.6175 33.5453 35.9537 35.4773 33.6577C37.4093 31.3617 38.6083 28.5391 38.9193 25.5545C39.0051 24.7305 39.7427 24.1322 40.5666 24.218C41.3906 24.3039 41.989 25.0414 41.9031 25.8654C41.5299 29.4469 40.0912 32.8341 37.7728 35.5893C35.4543 38.3445 32.3629 40.341 28.8979 41.3208C25.4329 42.3006 21.7537 42.2187 18.3358 41.0856C15.5398 40.1586 13.0238 38.5631 11 36.4499L11 40.5C11 41.3284 10.3284 42 9.50002 42C8.67159 42 8.00002 41.3284 8.00002 40.5L8.00002 31.5C8.00002 30.6716 8.67159 30 9.50002 30H18.5C19.3284 30 20 30.6716 20 31.5C20 32.3284 19.3284 33 18.5 33H11.9851C12.027 33.0428 12.0667 33.0885 12.1041 33.1371C13.9319 35.5169 16.4315 37.2937 19.2798 38.238Z" fill="white" fill-opacity="0.33"/>
</svg>
