<svg width="20" height="20" viewBox="0 0 20 20" fill="none" xmlns="http://www.w3.org/2000/svg">
<path fill-rule="evenodd" clip-rule="evenodd" d="M13.2942 10.8659L8.5 13.6339C7.83333 14.0188 7 13.5377 7 12.7679L7 7.23196C7 6.46216 7.83333 5.98103 8.5 6.36594L13.2942 9.13388C13.9609 9.51878 13.9609 10.481 13.2942 10.8659ZM12.7942 9.99991L8 12.7679L8 7.23196L12.7942 9.99991Z" fill="white"/>
<path fill-rule="evenodd" clip-rule="evenodd" d="M3 5C3 3.89543 3.89543 3 5 3H15C16.1046 3 17 3.89543 17 5V15C17 16.1046 16.1046 17 15 17H5C3.89543 17 3 16.1046 3 15V5ZM5 4H15C15.5523 4 16 4.44772 16 5V15C16 15.5523 15.5523 16 15 16H5C4.44772 16 4 15.5523 4 15V5C4 4.44772 4.44772 4 5 4Z" fill="white"/>
</svg>
