<svg width="20" height="20" viewBox="0 0 20 20" fill="none" xmlns="http://www.w3.org/2000/svg">
<path fill-rule="evenodd" clip-rule="evenodd" d="M14.76 3H3V14.76C3 15.3541 3.236 15.9238 3.65608 16.3439C4.07616 16.764 4.64592 17 5.24 17H14.76C15.3541 17 15.9238 16.764 16.3439 16.3439C16.764 15.9238 17 15.3541 17 14.76V5.24C17 4.64592 16.764 4.07616 16.3439 3.65608C15.9238 3.236 15.3541 3 14.76 3ZM6.57046 14.4409C6.55982 15.3727 7.11464 15.8791 8.01386 15.88C8.99932 15.8921 9.57822 15.2049 9.50766 14.2239H8.47558C8.4837 14.4163 8.46802 14.6823 8.36736 14.8024C8.29526 14.9036 8.18928 14.9543 8.04984 14.9543C7.7515 14.9495 7.6024 14.7325 7.6024 14.3034V12.2569C7.6024 12.0304 7.63488 11.8592 7.69984 11.7435C7.80554 11.5303 8.20524 11.5062 8.35658 11.711C8.47306 11.824 8.48356 12.124 8.47572 12.3221H9.5078C9.53468 11.818 9.42156 11.2777 9.12168 11.0133C8.63504 10.4982 7.48228 10.5273 6.98542 11.006C6.70878 11.2518 6.57046 11.6111 6.57046 12.0834V14.4409ZM9.87586 14.2239C9.84828 15.1847 10.294 15.8937 11.2904 15.88C12.6724 15.9383 13.0583 14.4081 12.4955 13.4066C12.3068 13.0779 11.7863 12.8063 11.3769 12.6472C11.0608 12.5018 10.9252 12.359 10.9222 12.0109C10.9222 11.6832 11.0593 11.5192 11.3335 11.5192C11.4874 11.5192 11.5921 11.5699 11.6474 11.6711C11.7264 11.7907 11.7456 12.1187 11.7376 12.322H12.6759C12.6987 11.8274 12.5809 11.2899 12.3114 11.0168C11.8745 10.4869 10.7345 10.5107 10.298 11.0276C9.8487 11.4464 9.81902 12.4802 10.1392 12.9512C10.2812 13.1634 10.5133 13.3465 10.8357 13.5008C10.879 13.5224 10.9298 13.5461 10.9843 13.5715C11.2142 13.6787 11.5119 13.8175 11.6079 13.9708C11.778 14.1678 11.7558 14.6768 11.6368 14.8531C11.5742 14.9495 11.4658 14.9977 11.312 14.9977C10.967 15.0243 10.8231 14.6428 10.8501 14.2239H9.87586ZM13.0225 14.2239C12.9949 15.1847 13.4407 15.8937 14.4371 15.88C15.819 15.9383 16.205 14.4081 15.6422 13.4066C15.4535 13.0779 14.9329 12.8063 14.5236 12.6472C14.2075 12.5018 14.0718 12.359 14.0689 12.0109C14.0689 11.6832 14.2059 11.5192 14.4802 11.5192C14.634 11.5192 14.7388 11.5699 14.7941 11.6711C14.873 11.7907 14.8922 12.1187 14.8842 12.322H15.8225C15.8453 11.8274 15.7276 11.2899 15.4581 11.0168C15.0211 10.4869 13.8811 10.5107 13.4446 11.0276C12.9953 11.4464 12.9657 12.4802 13.2858 12.9512C13.4278 13.1634 13.6599 13.3465 13.9823 13.5008C14.0257 13.5224 14.0764 13.5461 14.131 13.5715C14.3609 13.6787 14.6585 13.8175 14.7546 13.9708C14.9247 14.1678 14.9024 14.6768 14.7834 14.8531C14.7208 14.9495 14.6125 14.9977 14.4586 14.9977C14.1137 15.0243 13.9697 14.6428 13.9968 14.2239H13.0225Z" fill="white"/>
</svg>
