<svg width="48" height="48" viewBox="0 0 48 48" fill="none" xmlns="http://www.w3.org/2000/svg">
<g id="IconSceneCollection">
<g id="Path">
<path d="M31.1832 6.96572C30.6114 4.83185 28.4181 3.56552 26.2842 4.13729L6.96572 9.31367C4.83185 9.88544 3.56552 12.0788 4.13729 14.2127L10.0858 36.336C10.3009 37.136 11.1238 37.6101 11.9238 37.395C12.7238 37.1799 13.198 36.357 12.9829 35.557L7.03507 13.4362C6.89241 12.9029 7.20885 12.3544 7.74217 12.2114L27.0607 7.03507C27.5942 6.89213 28.1425 7.20871 28.2854 7.74217L29.3963 11.8881C29.6107 12.6883 30.4333 13.1632 31.2335 12.9488C32.0337 12.7344 32.5085 11.9119 32.2941 11.1117L31.1832 6.96572Z" fill="white" fill-opacity="0.33"/>
<path d="M24 25.9999C25.1046 25.9999 26 25.1045 26 23.9999C26 22.8953 25.1046 21.9999 24 21.9999C22.8954 21.9999 22 22.8953 22 23.9999C22 25.1045 22.8954 25.9999 24 25.9999Z" fill="white" fill-opacity="0.33"/>
<path d="M26 29.9999C26 31.1045 25.1046 31.9999 24 31.9999C22.8954 31.9999 22 31.1045 22 29.9999C22 28.8953 22.8954 27.9999 24 27.9999C25.1046 27.9999 26 28.8953 26 29.9999Z" fill="white" fill-opacity="0.33"/>
<path d="M24 37.9999C25.1046 37.9999 26 37.1045 26 35.9999C26 34.8953 25.1046 33.9999 24 33.9999C22.8954 33.9999 22 34.8953 22 35.9999C22 37.1045 22.8954 37.9999 24 37.9999Z" fill="white" fill-opacity="0.33"/>
<path d="M28.5 23.9999C28.5 23.1715 29.1716 22.4999 30 22.4999H36C36.8284 22.4999 37.5 23.1715 37.5 23.9999C37.5 24.8283 36.8284 25.4999 36 25.4999H30C29.1716 25.4999 28.5 24.8283 28.5 23.9999Z" fill="white" fill-opacity="0.33"/>
<path d="M30 28.4999C29.1716 28.4999 28.5 29.1715 28.5 29.9999C28.5 30.8283 29.1716 31.4999 30 31.4999H36C36.8284 31.4999 37.5 30.8283 37.5 29.9999C37.5 29.1715 36.8284 28.4999 36 28.4999H30Z" fill="white" fill-opacity="0.33"/>
<path d="M28.5 35.9999C28.5 35.1715 29.1716 34.4999 30 34.4999H36C36.8284 34.4999 37.5 35.1715 37.5 35.9999C37.5 36.8283 36.8284 37.4999 36 37.4999H30C29.1716 37.4999 28.5 36.8283 28.5 35.9999Z" fill="white" fill-opacity="0.33"/>
<path fill-rule="evenodd" clip-rule="evenodd" d="M16 19.9999C16 17.7907 17.7909 15.9999 20 15.9999H40C42.2091 15.9999 44 17.7907 44 19.9999V39.9999C44 42.209 42.2091 43.9999 40 43.9999H20C17.7909 43.9999 16 42.209 16 39.9999V19.9999ZM20 18.9999H40C40.5523 18.9999 41 19.4476 41 19.9999V39.9999C41 40.5522 40.5523 40.9999 40 40.9999H20C19.4477 40.9999 19 40.5522 19 39.9999V19.9999C19 19.4476 19.4477 18.9999 20 18.9999Z" fill="white" fill-opacity="0.33"/>
</g>
</g>
</svg>
