<svg width="20" height="20" viewBox="0 0 20 20" fill="none" xmlns="http://www.w3.org/2000/svg">
<path d="M16.0711 2.92867C15.8758 2.73341 15.5592 2.73341 15.364 2.92867C15.1687 3.12394 15.1687 3.44052 15.364 3.63578C16.1997 4.47151 16.8626 5.46366 17.3149 6.55559C17.7672 7.64752 18 8.81784 18 9.99974C18 11.1816 17.7672 12.352 17.3149 13.4439C16.8626 14.5358 16.1997 15.528 15.364 16.3637C15.1687 16.559 15.1687 16.8755 15.364 17.0708C15.5592 17.2661 15.8758 17.2661 16.0711 17.0708C16.9997 16.1422 17.7362 15.0398 18.2388 13.8266C18.7413 12.6133 19 11.313 19 9.99974C19 8.68652 18.7413 7.38616 18.2388 6.17291C17.7362 4.95965 16.9997 3.85726 16.0711 2.92867Z" fill="white"/>
<path fill-rule="evenodd" clip-rule="evenodd" d="M9 3.49974C9 3.29751 8.87818 3.11519 8.69134 3.0378C8.5045 2.96041 8.28945 3.00319 8.14645 3.14619L4.29289 6.99974H3C1.89543 6.99974 1 7.89517 1 8.99974V10.9997C1 12.1043 1.89543 12.9997 3 12.9997H4.29289L8.14645 16.8533C8.28945 16.9963 8.5045 17.0391 8.69134 16.9617C8.87818 16.8843 9 16.702 9 16.4997V3.49974ZM4.85355 7.8533L8 4.70685V15.2926L4.85355 12.1462C4.75979 12.0524 4.63261 11.9997 4.5 11.9997H3C2.44772 11.9997 2 11.552 2 10.9997V8.99974C2 8.44746 2.44772 7.99974 3 7.99974H4.5C4.63261 7.99974 4.75979 7.94706 4.85355 7.8533Z" fill="white"/>
<path d="M11.8284 7.17131C11.6332 6.97605 11.3166 6.97605 11.1213 7.17131C10.9261 7.36658 10.9261 7.68316 11.1213 7.87842C11.3999 8.157 11.6209 8.48771 11.7716 8.85169C11.9224 9.21567 12 9.60578 12 9.99974C12 10.3937 11.9224 10.7838 11.7716 11.1478C11.6209 11.5118 11.3999 11.8425 11.1213 12.1211C10.9261 12.3163 10.9261 12.6329 11.1213 12.8282C11.3166 13.0234 11.6332 13.0234 11.8284 12.8282C12.1999 12.4567 12.4945 12.0158 12.6955 11.5305C12.8965 11.0452 13 10.525 13 9.99974C13 9.47445 12.8965 8.95431 12.6955 8.46901C12.4945 7.98371 12.1999 7.54275 11.8284 7.17131Z" fill="white"/>
<path d="M13.2426 5.04999C13.4379 4.85473 13.7545 4.85473 13.9497 5.04999C14.5998 5.7 15.1154 6.47168 15.4672 7.32096C15.8189 8.17024 16 9.08049 16 9.99974C16 10.919 15.8189 11.8292 15.4672 12.6785C15.1154 13.5278 14.5998 14.2995 13.9497 14.9495C13.7545 15.1448 13.4379 15.1448 13.2426 14.9495C13.0474 14.7542 13.0474 14.4376 13.2426 14.2424C13.7998 13.6852 14.2417 13.0238 14.5433 12.2958C14.8448 11.5679 15 10.7877 15 9.99974C15 9.21181 14.8448 8.43159 14.5433 7.70364C14.2417 6.97569 13.7998 6.31425 13.2426 5.7571C13.0474 5.56184 13.0474 5.24526 13.2426 5.04999Z" fill="white"/>
</svg>
