<svg width="20" height="20" viewBox="0 0 20 20" fill="none" xmlns="http://www.w3.org/2000/svg">
<path d="M10.5 13.5C10.5 13.7761 10.2761 14 10 14C9.72386 14 9.5 13.7761 9.5 13.5V4.20711L5.85355 7.85355C5.65829 8.04882 5.34171 8.04882 5.14645 7.85355C4.95118 7.65829 4.95118 7.34171 5.14645 7.14645L9.64645 2.64645C9.84171 2.45118 10.1583 2.45118 10.3536 2.64645L14.8536 7.14645C15.0488 7.34171 15.0488 7.65829 14.8536 7.85355C14.6583 8.04882 14.3417 8.04882 14.1464 7.85355L10.5 4.20711V13.5Z" fill="white" fill-opacity="0.67"/>
<path d="M3.5 16C3.22386 16 3 16.2239 3 16.5C3 16.7761 3.22386 17 3.5 17H16.5C16.7761 17 17 16.7761 17 16.5C17 16.2239 16.7761 16 16.5 16H3.5Z" fill="white" fill-opacity="0.67"/>
</svg>
