<svg width="18" height="20" viewBox="0 0 18 20" fill="none" xmlns="http://www.w3.org/2000/svg">
<g id="IconCamera">
<g id="Path">
<path fill-rule="evenodd" clip-rule="evenodd" d="M12 10C12 12.2091 10.2091 14 8 14C5.79086 14 4 12.2091 4 10C4 7.79086 5.79086 6 8 6C10.2091 6 12 7.79086 12 10ZM11 10C11 11.6569 9.65685 13 8 13C6.34315 13 5 11.6569 5 10C5 8.34315 6.34315 7 8 7C9.65685 7 11 8.34315 11 10Z" fill="white" fill-opacity="0.67"/>
<path fill-rule="evenodd" clip-rule="evenodd" d="M4.9 2.8L4.3 3.6C4.11115 3.85181 3.81476 4 3.5 4H2C0.895431 4 0 4.89543 0 6V15C0 16.1046 0.895431 17 2 17H14C15.1046 17 16 16.1046 16 15V6C16 4.89543 15.1046 4 14 4H12.5C12.1852 4 11.8889 3.85181 11.7 3.6L11.1 2.8C10.7223 2.29639 10.1295 2 9.5 2H6.5C5.87049 2 5.27771 2.29639 4.9 2.8ZM15 15C15 15.5523 14.5523 16 14 16H2C1.44772 16 1 15.5523 1 15V6C1 5.44772 1.44772 5 2 5H3.5C4.12952 5 4.72229 4.70361 5.1 4.2L5.7 3.4C5.88885 3.14819 6.18524 3 6.5 3H9.5C9.81476 3 10.1111 3.14819 10.3 3.4L10.9 4.2C11.2777 4.70361 11.8705 5 12.5 5H14C14.5523 5 15 5.44772 15 6V15Z" fill="white" fill-opacity="0.67"/>
</g>
</g>
</svg>
