<svg width="20" height="20" viewBox="0 0 20 20" fill="none" xmlns="http://www.w3.org/2000/svg">
<path d="M10.0006 2C9.88355 2 9.76712 2.00252 9.65133 2.0075L9.65921 2.19083C9.77239 2.18596 9.88619 2.18351 10.0006 2.18351C10.1156 2.18351 10.2304 2.18604 10.345 2.19109L10.3531 2.00776C10.2358 2.00259 10.1183 2 10.0006 2Z" fill="white"/>
<path d="M8.95581 2.0677C8.72341 2.09805 8.49413 2.13839 8.26841 2.18827L8.30801 2.36745C8.52851 2.31873 8.75251 2.27932 8.97957 2.24966L8.95581 2.0677Z" fill="white"/>
<path d="M11.7493 2.19329C11.5202 2.14201 11.2886 2.10076 11.0553 2.06976L11.0311 2.25167C11.2591 2.28196 11.4853 2.32226 11.7093 2.37237L11.7493 2.19329Z" fill="white"/>
<path d="M7.59429 2.36865C7.37128 2.43896 7.15248 2.51878 6.93838 2.60763L7.00871 2.77712C7.21788 2.69032 7.43162 2.61235 7.64946 2.54366L7.59429 2.36865Z" fill="white"/>
<path d="M13.0915 2.62063C12.8745 2.52981 12.6537 2.44866 12.4298 2.37739L12.3742 2.55225C12.5929 2.62189 12.8086 2.70117 13.0207 2.78991L13.0915 2.62063Z" fill="white"/>
<path d="M6.30597 2.90321C6.09915 3.01116 5.89763 3.12788 5.70191 3.25287L5.80068 3.40753C5.99192 3.2854 6.18882 3.17136 6.39088 3.06589L6.30597 2.90321Z" fill="white"/>
<path d="M14.0375 3.09213C13.9359 3.0328 13.8331 2.97579 13.7292 2.92112L13.6437 3.08352C13.7453 3.13693 13.8457 3.19263 13.945 3.25061L14.0375 3.09213Z" fill="white"/>
<path d="M5.13061 3.65375C4.94595 3.79569 4.76766 3.9455 4.59624 4.10267L4.72025 4.23793C4.88777 4.08433 5.062 3.93794 5.24244 3.79925L5.13061 3.65375Z" fill="white"/>
<path d="M4.10272 4.59619C3.94554 4.76761 3.79574 4.94591 3.6538 5.13056L3.79929 5.24239C3.93799 5.06195 4.08438 4.88772 4.23798 4.7202L4.10272 4.59619Z" fill="white"/>
<path d="M3.25292 5.70186C3.12792 5.89759 3.0112 6.09911 2.90326 6.30593L3.06594 6.39084C3.1714 6.18877 3.28544 5.99187 3.40758 5.80064L3.25292 5.70186Z" fill="white"/>
<path d="M17.2664 6.65128C17.2227 6.55627 17.177 6.46202 17.1294 6.3686L16.9659 6.45186C17.0124 6.54314 17.057 6.63523 17.0998 6.72807L17.2664 6.65128Z" fill="white"/>
<path d="M2.60768 6.93833C2.51883 7.15244 2.43901 7.37123 2.36869 7.59424L2.54371 7.64942C2.61239 7.43157 2.69037 7.21783 2.77717 7.00866L2.60768 6.93833Z" fill="white"/>
<path d="M17.7007 7.82905C17.6439 7.62759 17.5792 7.4283 17.5067 7.23164L17.3345 7.29513C17.4054 7.48728 17.4686 7.68201 17.5241 7.87885L17.7007 7.82905Z" fill="white"/>
<path d="M2.18832 8.26836C2.13844 8.49408 2.0981 8.72336 2.06775 8.95576L2.24971 8.97953C2.27936 8.75246 2.31877 8.52846 2.3675 8.30796L2.18832 8.26836Z" fill="white"/>
<path d="M17.9456 9.06024C17.921 8.85206 17.8882 8.6451 17.8474 8.43983L17.6674 8.47563C17.7073 8.67619 17.7393 8.8784 17.7634 9.08181L17.9456 9.06024Z" fill="white"/>
<path d="M2.00754 9.65128C2.00256 9.76708 2.00005 9.88351 2.00005 10.0005C2.00005 10.1175 2.00256 10.234 2.00754 10.3498L2.19088 10.3419C2.18601 10.2287 2.18355 10.1149 2.18355 10.0005C2.18355 9.88614 2.18601 9.77234 2.19088 9.65917L2.00754 9.65128Z" fill="white"/>
<path d="M18.0011 10.0005C18.0011 9.89567 17.999 9.79096 17.9949 9.68644L17.8115 9.69364C17.8156 9.79577 17.8176 9.89808 17.8176 10.0005C17.8176 10.1149 17.8151 10.2287 17.8102 10.3419L17.9936 10.3498C17.9986 10.234 18.0011 10.1175 18.0011 10.0005Z" fill="white"/>
<path d="M2.06775 11.0453C2.0981 11.2777 2.13844 11.507 2.18832 11.7327L2.3675 11.6931C2.31877 11.4726 2.27936 11.2486 2.24971 11.0215L2.06775 11.0453Z" fill="white"/>
<path d="M17.8128 11.7327C17.8627 11.507 17.903 11.2777 17.9334 11.0453L17.7514 11.0215C17.7218 11.2486 17.6824 11.4726 17.6336 11.6931L17.8128 11.7327Z" fill="white"/>
<path d="M17.3934 13.0627C17.4823 12.8486 17.5621 12.6298 17.6324 12.4068L17.4574 12.3516C17.3887 12.5695 17.3108 12.7832 17.224 12.9924L17.3934 13.0627Z" fill="white"/>
<path d="M2.36869 12.4068C2.43901 12.6298 2.51883 12.8486 2.60768 13.0627L2.77717 12.9924C2.69037 12.7832 2.61239 12.5695 2.54371 12.3516L2.36869 12.4068Z" fill="white"/>
<path d="M2.90326 13.6951C3.0112 13.9019 3.12792 14.1034 3.25292 14.2992L3.40758 14.2004C3.28544 14.0092 3.1714 13.8123 3.06594 13.6102L2.90326 13.6951Z" fill="white"/>
<path d="M16.7482 14.2992C16.8732 14.1034 16.9899 13.9019 17.0979 13.6951L16.9352 13.6102C16.8297 13.8123 16.7157 14.0092 16.5935 14.2004L16.7482 14.2992Z" fill="white"/>
<path d="M3.6538 14.8705C3.79574 15.0551 3.94554 15.2334 4.10272 15.4048L4.23798 15.2808C4.08438 15.1133 3.93799 14.9391 3.79929 14.7586L3.6538 14.8705Z" fill="white"/>
<path d="M15.8984 15.4048C16.0556 15.2334 16.2054 15.0551 16.3473 14.8705L16.2018 14.7586C16.0631 14.9391 15.9167 15.1133 15.7631 15.2808L15.8984 15.4048Z" fill="white"/>
<path d="M4.59624 15.8984C4.76766 16.0555 4.94595 16.2053 5.13061 16.3473L5.24244 16.2018C5.062 16.0631 4.88777 15.9167 4.72025 15.7631L4.59624 15.8984Z" fill="white"/>
<path d="M14.8705 16.3473C15.0552 16.2053 15.2335 16.0555 15.4049 15.8984L15.2809 15.7631C15.1134 15.9167 14.9391 16.0631 14.7587 16.2018L14.8705 16.3473Z" fill="white"/>
<path d="M5.70191 16.7482C5.89763 16.8732 6.09915 16.9899 6.30597 17.0978L6.39088 16.9351C6.18882 16.8297 5.99192 16.7156 5.80068 16.5935L5.70191 16.7482Z" fill="white"/>
<path d="M13.6952 17.0978C13.902 16.9899 14.1035 16.8732 14.2992 16.7482L14.2004 16.5935C14.0092 16.7156 13.8123 16.8297 13.6102 16.9351L13.6952 17.0978Z" fill="white"/>
<path d="M6.93838 17.3934C7.15248 17.4823 7.37128 17.5621 7.59429 17.6324L7.64947 17.4574C7.43162 17.3887 7.21788 17.3107 7.00871 17.2239L6.93838 17.3934Z" fill="white"/>
<path d="M12.4068 17.6324C12.6298 17.5621 12.8486 17.4823 13.0627 17.3934L12.9924 17.2239C12.7832 17.3107 12.5695 17.3887 12.3517 17.4574L12.4068 17.6324Z" fill="white"/>
<path d="M8.26841 17.8128C8.49413 17.8626 8.72341 17.903 8.95581 17.9333L8.97957 17.7514C8.75251 17.7217 8.52851 17.6823 8.30801 17.6336L8.26841 17.8128Z" fill="white"/>
<path d="M11.0453 17.9333C11.2777 17.903 11.507 17.8626 11.7327 17.8128L11.6931 17.6336C11.4726 17.6823 11.2486 17.7217 11.0216 17.7514L11.0453 17.9333Z" fill="white"/>
<path d="M9.65132 17.9935C9.76712 17.9985 9.88355 18.001 10.0006 18.001C10.1176 18.001 10.234 17.9985 10.3498 17.9935L10.3419 17.8102C10.2287 17.8151 10.1149 17.8175 10.0006 17.8175C9.88619 17.8175 9.77239 17.8151 9.65921 17.8102L9.65132 17.9935Z" fill="white"/>
<path d="M17.907 3.88438C17.907 2.896 17.1045 2.09346 16.1161 2.09346C15.1277 2.09346 14.3252 2.896 14.3252 3.88438C14.3252 4.87276 15.1277 5.6753 16.1161 5.6753C17.1045 5.6753 17.907 4.87445 17.907 3.88438Z" fill="white"/>
<path d="M12.9345 11.7913C13.4194 11.7254 13.5191 11.7035 13.6729 11.6325V12.1495C13.6729 12.3049 13.6272 12.3979 13.4904 12.5246C13.3028 12.6952 13.0781 12.7831 12.8078 12.7831C12.4496 12.7831 12.2401 12.6124 12.2401 12.3201C12.2401 12.0177 12.4446 11.8623 12.9345 11.7913Z" fill="white"/>
<path fill-rule="evenodd" clip-rule="evenodd" d="M16.1171 10.0021C16.1171 6.62639 13.3766 3.88594 10.0009 3.88594C6.62521 3.88594 3.88477 6.62639 3.88477 10.0021C3.88477 13.3778 6.62521 16.1183 10.0009 16.1183C13.3766 16.1183 16.1171 13.3778 16.1171 10.0021ZM14.326 7.46775C14.326 6.47937 13.5234 5.67684 12.5351 5.67684C11.5467 5.67684 10.7441 6.47937 10.7441 7.46775C10.7441 8.45614 11.5467 9.25867 12.5351 9.25867C13.5234 9.25867 14.326 8.45614 14.326 7.46775ZM8.34338 12.6074H6.36154V9.04585H5.84961V13.0585H8.34338V12.6074ZM10.7103 13.0586V12.6565C10.44 13.0366 10.1713 13.1853 9.74724 13.1853C9.18631 13.1853 8.82813 12.8778 8.82813 12.398V10.1745H9.2843V12.2172C9.2843 12.5635 9.51577 12.7849 9.87902 12.7849C10.3572 12.7849 10.6664 12.3996 10.6664 11.81V10.1745H11.1225V13.0586H10.7103ZM14.1628 13.1852C14.2574 13.1852 14.3284 13.1751 14.4771 13.1362V12.7898C14.4264 12.8017 14.4044 12.8017 14.3774 12.8017C14.2169 12.8017 14.129 12.7189 14.129 12.5753V10.879C14.129 10.367 13.754 10.0916 13.0443 10.0916C12.6253 10.0916 12.279 10.2133 12.0864 10.4279C11.9546 10.5765 11.9005 10.7421 11.8887 11.0276H12.3516C12.3905 10.6745 12.6 10.5157 13.0291 10.5157C13.4414 10.5157 13.6729 10.6695 13.6729 10.9449V11.0665C13.6729 11.2591 13.558 11.3419 13.1947 11.3858C12.5459 11.4686 12.4462 11.4906 12.2705 11.5615C11.9343 11.6984 11.7637 11.9569 11.7637 12.332C11.7637 12.8557 12.1269 13.1852 12.7098 13.1852C13.0731 13.1852 13.3654 13.0585 13.6898 12.7611C13.7219 13.0534 13.8655 13.1852 14.1628 13.1852Z" fill="white"/>
</svg>
