<svg width="240" height="120" viewBox="0 0 240 120" fill="none" xmlns="http://www.w3.org/2000/svg">
<rect width="240" height="120" rx="8" fill="#232323"/>
<path fill-rule="evenodd" clip-rule="evenodd" d="M116.536 43.895C118.076 41.2284 121.925 41.2284 123.464 43.895L138.536 70.0001C140.076 72.6668 138.151 76.0001 135.072 76.0001H104.928C101.849 76.0001 99.9246 72.6668 101.464 70.0001L116.536 43.895ZM120 52.0002C120.829 52.0002 121.5 52.6718 121.5 53.5002V62.5002C121.5 63.3287 120.829 64.0002 120 64.0002C119.172 64.0002 118.5 63.3287 118.5 62.5002V53.5002C118.5 52.6718 119.172 52.0002 120 52.0002ZM120 70C121.105 70 122 69.1046 122 68C122 66.8954 121.105 66 120 66C118.895 66 118 66.8954 118 68C118 69.1046 118.895 70 120 70Z" fill="#444444"/>
</svg>
