<svg width="20" height="21" viewBox="0 0 20 21" fill="none" xmlns="http://www.w3.org/2000/svg">
<g id="IconInfo">
<g id="Path">
<path d="M10 9C10.2761 9 10.5 9.22386 10.5 9.5V15C10.5 15.2761 10.2761 15.5 10 15.5C9.72386 15.5 9.5 15.2761 9.5 15V9.5C9.5 9.22386 9.72386 9 10 9Z" fill="#8DB2FF"/>
<path d="M10 7.5C10.5523 7.5 11 7.05228 11 6.5C11 5.94772 10.5523 5.5 10 5.5C9.44771 5.5 9 5.94772 9 6.5C9 7.05228 9.44771 7.5 10 7.5Z" fill="#8DB2FF"/>
<path fill-rule="evenodd" clip-rule="evenodd" d="M10 18.5C14.4183 18.5 18 14.9183 18 10.5C18 6.08172 14.4183 2.5 10 2.5C5.58172 2.5 2 6.08172 2 10.5C2 14.9183 5.58172 18.5 10 18.5ZM10 17.5C13.866 17.5 17 14.366 17 10.5C17 6.63401 13.866 3.5 10 3.5C6.13401 3.5 3 6.63401 3 10.5C3 14.366 6.13401 17.5 10 17.5Z" fill="#8DB2FF"/>
</g>
</g>
</svg>
