<svg width="84" height="32" viewBox="0 0 84 32" fill="none" xmlns="http://www.w3.org/2000/svg">
<path fill-rule="evenodd" clip-rule="evenodd" d="M60.4635 15.2171L58.3976 12.0806L57.5532 12.9171V15.2171H55.1405V4.20929H57.5532V10.617L60.2373 7.39098H62.7856L59.9357 10.7664L63.0269 15.2171H60.4635ZM12.0158 10.0188L12.0064 10.0117H12.0063L12.0068 10.0122L10.4892 9.14137L9.72964 9.58057V12.9737L10.4901 13.4087L12.6409 12.1645L11.902 11.7408L10.4671 12.5708V9.97892L14.6292 12.3692L14.6268 12.3843C14.4018 13.0667 13.9763 13.6543 13.3962 14.0831C12.804 14.5209 12.1021 14.752 11.3662 14.752C9.47232 14.752 7.93168 13.2052 7.93168 11.3043C7.93168 9.40347 9.47232 7.85672 11.3662 7.85672C12.8161 7.85672 14.1172 8.7802 14.6029 10.1541C14.639 10.256 14.6705 10.3608 14.6968 10.4659L15.4591 10.0225C15.4267 9.91779 15.3896 9.81347 15.3497 9.71205C15.0355 8.9206 14.4996 8.24568 13.7992 7.75999C13.0824 7.26303 12.2412 7 11.3662 7C10.2206 7 9.14402 7.44765 8.33425 8.2607C7.52449 9.07375 7.07825 10.155 7.07825 11.3043C7.07825 12.4537 7.52449 13.5349 8.33433 14.348C9.14457 15.161 10.2211 15.6087 11.3662 15.6087C12.3803 15.6087 13.3638 15.2466 14.136 14.5894C14.896 13.9427 15.4093 13.0484 15.5846 12.0695L12.0158 10.0188ZM36.2771 15.217H38.6898V15.2169V10.2167C38.6898 9.88943 38.6596 9.55463 38.5993 9.21232C38.539 8.87001 38.4259 8.55 38.26 8.25245C38.0941 7.95491 37.8579 7.71668 37.5513 7.53809C37.2445 7.3595 36.84 7.2702 36.3374 7.2702C35.714 7.2702 35.1536 7.40168 34.656 7.66464C34.1585 7.92759 33.7589 8.29706 33.4573 8.7732C33.3567 8.36656 33.1331 8.01454 32.7862 7.71676C32.4395 7.41921 31.9393 7.27028 31.2859 7.27028C30.6123 7.27028 30.0268 7.39448 29.5292 7.64233C29.0316 7.89042 28.6369 8.25253 28.3455 8.72875V7.39096H26.1741V15.217H28.5867V10.7377C28.7273 10.3294 28.9535 10.0012 29.2652 9.75334C29.5767 9.50549 29.8884 9.38129 30.2001 9.38129C30.5017 9.38129 30.7479 9.49743 30.939 9.72955C31.1299 9.96159 31.2255 10.3343 31.2255 10.8475V15.217H33.6382V10.7735C33.7687 10.3589 33.99 10.0234 34.3017 9.76656C34.6132 9.50979 34.9249 9.38136 35.2366 9.38136C35.5582 9.38136 35.812 9.49985 35.9981 9.7369C36.184 9.97395 36.2771 10.344 36.2771 10.8476V15.217ZM39.7751 12.879C39.7751 12.3725 39.9207 11.9229 40.2124 11.5304C40.5039 11.1379 40.906 10.8299 41.4187 10.6063C41.9314 10.383 42.5196 10.2711 43.183 10.2711C43.5046 10.2711 43.8213 10.2989 44.133 10.354C44.4445 10.4094 44.7159 10.4874 44.9473 10.5878V10.2419C44.9473 9.81427 44.8165 9.49097 44.5552 9.27231C44.2936 9.05365 43.8966 8.94409 43.3639 8.94409C42.9316 8.94409 42.5195 9.01945 42.1275 9.17026C41.7354 9.32107 41.3231 9.53738 40.8909 9.81865L40.1671 8.28059C40.6897 7.93898 41.2351 7.68495 41.8032 7.51912C42.3711 7.35328 42.9719 7.27032 43.6052 7.27032C44.7912 7.27032 45.7137 7.54698 46.3722 8.10012C47.0306 8.65335 47.3599 9.46311 47.3599 10.5297V12.5446C47.3599 12.7817 47.3976 12.9496 47.473 13.0484C47.5484 13.1474 47.6765 13.2015 47.8575 13.2114V15.2169C47.6563 15.2671 47.4703 15.2999 47.2996 15.3149C47.1285 15.33 46.9777 15.3375 46.8472 15.3375C46.3949 15.3375 46.0529 15.2471 45.8218 15.0661C45.5904 14.8852 45.4397 14.639 45.3695 14.3273L45.3092 13.9804C44.9673 14.4327 44.5526 14.7773 44.0651 15.0133C43.5774 15.2494 43.0673 15.3677 42.5346 15.3677C42.0118 15.3677 41.5417 15.2607 41.1246 15.0472C40.7073 14.8338 40.3782 14.5381 40.137 14.1606C39.8957 13.7832 39.775 13.3558 39.775 12.8789L39.7751 12.879ZM44.5703 13.1648C44.6808 13.0772 44.7713 12.977 44.8417 12.8649C44.9119 12.7527 44.9473 12.6528 44.9473 12.5649V11.8769C44.7461 11.7989 44.5199 11.7379 44.2688 11.6941C44.0174 11.6503 43.7862 11.6281 43.5751 11.6281C43.1428 11.6281 42.7809 11.7259 42.4894 11.921C42.1977 12.1161 42.0521 12.3649 42.0521 12.6672C42.0521 12.833 42.1023 12.9916 42.2029 13.1429C42.3032 13.2941 42.4416 13.4112 42.6175 13.4942C42.7933 13.5771 43.002 13.6185 43.2433 13.6185C43.4846 13.6185 43.7259 13.577 43.9671 13.4942C44.2083 13.4112 44.4093 13.3014 44.5702 13.1648L44.5703 13.1648ZM52.5473 9.64544C53.0197 9.45949 53.5475 9.36644 54.1306 9.36644V7.1951C54.0802 7.18516 54.03 7.17999 53.9798 7.17999H53.7385C53.2659 7.19009 52.8136 7.34583 52.3814 7.64744C51.9491 7.94898 51.5922 8.36627 51.3108 8.89899V7.39106H49.1093V15.2172H51.522V10.4673C51.733 10.1054 52.0747 9.83154 52.5473 9.64544ZM65.3191 15.0474C65.8418 15.2608 66.44 15.3678 67.1136 15.3678L67.1135 15.368C67.7167 15.368 68.2671 15.2749 68.7647 15.089C69.2622 14.9031 69.692 14.6569 70.0539 14.3501C70.4158 14.0436 70.6971 13.6843 70.8984 13.2719L68.8476 12.6839C68.7369 12.9654 68.5234 13.1915 68.2067 13.3624C67.8901 13.5334 67.5456 13.6187 67.1738 13.6187C66.8923 13.6187 66.6209 13.5602 66.3595 13.4429C66.0981 13.3255 65.882 13.1497 65.7111 12.9151C65.5401 12.6806 65.4447 12.3926 65.4246 12.0504H71.2753C71.2853 11.9512 71.298 11.8346 71.3131 11.7005C71.3281 11.5667 71.3357 11.43 71.3357 11.291C71.3357 10.5861 71.1722 9.92595 70.8456 9.3105C70.5188 8.69506 70.0389 8.201 69.4055 7.82872C68.7722 7.45643 68.0083 7.27032 67.1135 7.27032C66.2187 7.27032 65.4548 7.45862 64.8215 7.83513C64.1882 8.21165 63.7031 8.70946 63.3664 9.32866C63.0294 9.94786 62.8612 10.634 62.8612 11.387C62.8612 11.9138 62.9566 12.4182 63.1477 12.9003C63.3386 13.3823 63.6175 13.8074 63.9846 14.1752C64.3514 14.5429 64.7964 14.8337 65.3191 15.0474ZM68.8024 10.5726H65.3795C65.4096 10.2435 65.5001 9.96257 65.6509 9.73029C65.8017 9.49802 66.0027 9.31637 66.254 9.1856C66.5052 9.05483 66.7767 8.98932 67.0684 8.98932C67.39 8.98932 67.6715 9.05483 67.9128 9.1856C68.1541 9.31637 68.355 9.50036 68.5159 9.73765C68.6766 9.97486 68.7723 10.2532 68.8024 10.5726ZM77.458 14.7798C77.2469 14.8804 77.008 14.9758 76.7418 15.0663C76.4753 15.1568 76.199 15.2296 75.9124 15.285C75.6259 15.3401 75.3368 15.3679 75.0454 15.3679C74.6432 15.3679 74.2764 15.301 73.9446 15.1674C73.6128 15.0336 73.3464 14.8133 73.1454 14.506C72.9442 14.199 72.8438 13.7929 72.8438 13.2874V9.23072H71.8335V7.39104H72.8438V4.85767H75.2565V7.39097H76.8549V9.23064H75.2565V12.4293C75.2664 12.6946 75.3318 12.8838 75.4525 12.9969C75.5731 13.1099 75.739 13.1662 75.9501 13.1662C76.131 13.1662 76.3143 13.1337 76.5005 13.0682C76.6864 13.003 76.8549 12.9452 77.0057 12.8948L77.458 14.7797V14.7798ZM38.6898 16.7823H36.2771V22.633C36.2771 23.3167 36.463 23.8419 36.835 24.2088C37.2068 24.5759 37.7398 24.7592 38.4334 24.7592C38.7751 24.7592 39.1421 24.7139 39.5342 24.6235C39.9263 24.533 40.2732 24.4225 40.5747 24.2917L40.2581 22.4671C40.1374 22.5478 39.9991 22.608 39.8434 22.6481C39.6874 22.6884 39.5392 22.7084 39.3985 22.7084C39.1671 22.7084 38.9914 22.6381 38.8707 22.4973C38.7501 22.3566 38.6898 22.1203 38.6898 21.7885V16.7823ZM40.9062 22.2703C40.9062 21.7638 41.0518 21.3142 41.3435 20.9217C41.635 20.5292 42.0372 20.2212 42.5498 19.9976C43.0625 19.7743 43.6507 19.6624 44.3141 19.6624C44.6357 19.6624 44.9524 19.6902 45.2641 19.7453C45.5756 19.8007 45.847 19.8787 46.0784 19.9791V19.6332C46.0784 19.2056 45.9476 18.8823 45.6863 18.6636C45.4247 18.4449 45.0277 18.3354 44.495 18.3354C44.0627 18.3354 43.6506 18.4107 43.2586 18.5616C42.8665 18.7124 42.4542 18.9287 42.022 19.2099L41.2982 17.6719C41.8208 17.3303 42.3662 17.0762 42.9343 16.9104C43.5022 16.7446 44.103 16.6616 44.7363 16.6616C45.9223 16.6616 46.8448 16.9383 47.5034 17.4914C48.1617 18.0446 48.491 18.8544 48.491 19.921V21.9359C48.491 22.173 48.5287 22.3409 48.6041 22.4397C48.6795 22.5387 48.8076 22.5928 48.9886 22.6027V24.6082C48.7874 24.6584 48.6014 24.6912 48.4307 24.7062C48.2596 24.7213 48.1088 24.7288 47.9783 24.7288C47.526 24.7288 47.184 24.6383 46.9529 24.4574C46.7215 24.2765 46.5708 24.0303 46.5006 23.7185L46.4403 23.3717C46.0984 23.824 45.6837 24.1685 45.1962 24.4046C44.7085 24.6407 44.1984 24.7589 43.6657 24.7589C43.1429 24.7589 42.6728 24.652 42.2557 24.4385C41.8384 24.2251 41.5093 23.9294 41.2681 23.5519C41.0268 23.1745 40.9061 22.7471 40.9061 22.2702L40.9062 22.2703ZM45.7014 22.5561C45.8119 22.4685 45.9024 22.3683 45.9728 22.2562C46.043 22.144 46.0784 22.0441 46.0784 21.9562V21.2682C45.8772 21.1902 45.651 21.1292 45.3999 21.0854C45.1485 21.0416 44.9173 21.0194 44.7062 21.0194C44.2739 21.0194 43.912 21.1172 43.6205 21.3123C43.3288 21.5074 43.1832 21.7562 43.1832 22.0585C43.1832 22.2243 43.2334 22.3829 43.334 22.5342C43.4343 22.6854 43.5727 22.8025 43.7486 22.8855C43.9244 22.9684 44.1331 23.0098 44.3744 23.0098C44.6157 23.0098 44.857 22.9683 45.0982 22.8855C45.3394 22.8025 45.5404 22.6927 45.7013 22.5561L45.7014 22.5561ZM51.7662 24.4316C52.2888 24.6498 52.887 24.7591 53.5606 24.7591L53.5604 24.7592C54.1735 24.7592 54.7214 24.6661 55.204 24.4802C55.6866 24.2943 56.1035 24.0481 56.4555 23.7413C56.8073 23.4348 57.0837 23.0755 57.285 22.6631L54.9477 21.9544C54.8672 22.0954 54.7541 22.2259 54.6084 22.3465C54.4626 22.4672 54.3017 22.5602 54.1259 22.6255C53.9499 22.691 53.7565 22.7235 53.5453 22.7235C53.2235 22.7235 52.9271 22.6403 52.6557 22.4737C52.3843 22.3071 52.1705 22.0697 52.0148 21.761C51.8588 21.4524 51.7811 21.0971 51.7811 20.6956C51.7811 20.2941 51.8588 19.9437 52.0148 19.645C52.1706 19.3462 52.3817 19.1111 52.6482 18.9396C52.9144 18.768 53.2136 18.6823 53.5453 18.6823C53.8368 18.6823 54.1007 18.7501 54.337 18.8858C54.5731 19.0215 54.7668 19.21 54.9176 19.4512L57.2699 18.7425C56.9582 18.1193 56.4882 17.6167 55.8601 17.2346C55.2317 16.8527 54.4601 16.6616 53.5454 16.6616C52.6608 16.6616 51.9019 16.8477 51.2685 17.2197C50.6352 17.592 50.1501 18.0832 49.8134 18.6935C49.4764 19.3037 49.3082 19.9712 49.3082 20.6955C49.3082 21.2415 49.4036 21.7574 49.5947 22.2437C49.7856 22.7301 50.0645 23.1617 50.4317 23.5386C50.7985 23.9156 51.2434 24.2134 51.7662 24.4316ZM62.017 24.7591C61.3434 24.7591 60.7452 24.6521 60.2226 24.4387C59.6998 24.225 59.2549 23.9342 58.8881 23.5665C58.521 23.1987 58.242 22.7736 58.0512 22.2916C57.8601 21.8095 57.7646 21.3051 57.7646 20.7783C57.7646 20.0253 57.9328 19.3392 58.2698 18.72C58.6065 18.1008 59.0916 17.6029 59.7249 17.2264C60.3583 16.8499 61.1221 16.6616 62.0169 16.6616C62.9118 16.6616 63.6756 16.8477 64.309 17.22C64.9423 17.5923 65.4222 18.0864 65.749 18.7018C66.0756 19.3172 66.2391 19.9774 66.2391 20.6823C66.2391 20.8213 66.2315 20.958 66.2165 21.0918C66.2014 21.2259 66.1887 21.3425 66.1788 21.4417H60.3281C60.3481 21.7839 60.4435 22.0719 60.6146 22.3064C60.7854 22.541 61.0015 22.7168 61.263 22.8342C61.5243 22.9515 61.7957 23.01 62.0773 23.01C62.449 23.01 62.7935 22.9247 63.1102 22.7537C63.4268 22.5828 63.6403 22.3567 63.751 22.0752L65.8018 22.6632C65.6006 23.0756 65.3192 23.4349 64.9574 23.7414C64.5954 24.0482 64.1657 24.2944 63.6681 24.4803C63.1705 24.6662 62.6201 24.7593 62.0169 24.7593L62.017 24.7591ZM60.2829 19.9639H63.7059C63.6758 19.6445 63.58 19.3662 63.4194 19.1289C63.2585 18.8917 63.0575 18.7077 62.8162 18.5769C62.5749 18.4461 62.2934 18.3806 61.9718 18.3806C61.6801 18.3806 61.4086 18.4461 61.1575 18.5769C60.9061 18.7077 60.7051 18.8893 60.5543 19.1216C60.4035 19.3539 60.3131 19.6347 60.2829 19.9639ZM28.2963 17.9831C29.0331 17.1186 30.1178 16.5722 31.3275 16.5722V16.5723C33.5471 16.5723 35.3465 18.4117 35.3465 20.6808C35.3465 22.9499 33.5471 24.7893 31.3275 24.7893C30.2682 24.7893 29.3049 24.3703 28.5869 23.6856V27.8205H26.1742V18.3455H26.1741V16.7826H28.2963V17.9831ZM28.5354 20.6807C28.5354 21.8107 29.4429 22.7268 30.5625 22.7268C31.6821 22.7268 32.5897 21.8107 32.5897 20.6807C32.5897 19.5507 31.6821 18.6347 30.5625 18.6347C29.4429 18.6347 28.5354 19.5507 28.5354 20.6807Z" fill="white"/>
<path d="M20.8913 16.3914C18.6221 16.3914 16.7826 18.2309 16.7826 20.5V24.6087H20.8913C23.1605 24.6087 25 22.7692 25 20.5C25 18.2309 23.1605 16.3914 20.8913 16.3914Z" fill="url(#paint0_linear_981_3218)"/>
<path d="M25 14.0435C25 14.9079 24.2993 15.6087 23.4348 15.6087C23.1172 15.6087 22.8217 15.5141 22.575 15.3516C22.3282 15.189 22.1301 14.9585 22.0075 14.6867L20.8741 12.1755C20.8435 12.1075 20.7752 12.0602 20.6958 12.0602C20.6163 12.0602 20.548 12.1076 20.5174 12.1756L19.384 14.6867C19.1387 15.2304 18.5919 15.6087 17.9567 15.6087C17.0923 15.6087 16.3914 14.9079 16.3914 14.0435C16.3914 13.7259 16.4861 13.4304 16.6486 13.1836C16.8111 12.9369 17.0417 12.7389 17.3135 12.6161L19.8247 11.4828C19.8927 11.4521 19.9399 11.3838 19.9399 11.3043C19.9399 11.2249 19.8926 11.1566 19.8246 11.126L17.3134 9.99261C16.7697 9.74726 16.3914 9.20046 16.3914 8.56521C16.3914 7.70082 17.0922 7 17.9566 7C18.2742 7 18.5697 7.09462 18.8165 7.25716C19.0633 7.41971 19.2613 7.65019 19.384 7.92207L20.5173 10.4333C20.548 10.5012 20.6163 10.5485 20.6957 10.5485C20.7751 10.5485 20.8435 10.5012 20.8741 10.4331L22.0075 7.92207C22.2529 7.37839 22.7997 7 23.4348 7C24.2993 7 25 7.70082 25 8.56521C25 8.8828 24.9054 9.17831 24.7429 9.42514C24.5803 9.6719 24.3498 9.86998 24.078 9.99261L21.567 11.126C21.499 11.1566 21.4515 11.2249 21.4515 11.3043C21.4515 11.3936 21.5085 11.4564 21.5668 11.4828L24.078 12.6161C24.6216 12.8615 25 13.4083 25 14.0435Z" fill="url(#paint1_linear_981_3218)"/>
<path d="M7.97834 16.7826C7.43803 16.7826 7.00008 17.2205 7.00008 17.7609C7.00008 18.3012 7.43803 18.7391 7.97834 18.7391H12.9026L7.7117 22.1226C7.28323 22.4019 7 22.8852 7 23.4348C7 24.2992 7.70075 25 8.56521 25C9.11476 25 9.5981 24.7167 9.87733 24.2883L13.2609 19.0975V24.0217C13.2609 24.562 13.6989 25 14.2392 25C14.7795 25 15.2175 24.562 15.2175 24.0217V16.7826H7.97834Z" fill="url(#paint2_linear_981_3218)"/>
<defs>
<linearGradient id="paint0_linear_981_3218" x1="25" y1="16.3914" x2="16.7826" y2="24.6087" gradientUnits="userSpaceOnUse">
<stop offset="0.3281" stop-color="#FBDB00"/>
<stop offset="1" stop-color="#FF9959"/>
</linearGradient>
<linearGradient id="paint1_linear_981_3218" x1="25" y1="7" x2="16.3914" y2="15.6087" gradientUnits="userSpaceOnUse">
<stop offset="0.2969" stop-color="#4DE36E"/>
<stop offset="1" stop-color="#31AFA7"/>
</linearGradient>
<linearGradient id="paint2_linear_981_3218" x1="15.2175" y1="16.7826" x2="7.00008" y2="25" gradientUnits="userSpaceOnUse">
<stop offset="0.3385" stop-color="#FF60D0"/>
<stop offset="1" stop-color="#A638FE"/>
</linearGradient>
</defs>
</svg>
