<svg width="24" height="24" viewBox="0 0 24 24" fill="none" xmlns="http://www.w3.org/2000/svg">
<path d="M8.00641 6.01171L8.0158 6.01876L11.5846 8.0695C11.4094 9.04839 10.896 9.94268 10.136 10.5894C9.36385 11.2466 8.38034 11.6087 7.36624 11.6087C6.22113 11.6087 5.14457 11.161 4.33433 10.348C3.52449 9.53494 3.07825 8.45369 3.07825 7.30435C3.07825 6.15501 3.52449 5.07376 4.33426 4.2607C5.14402 3.44765 6.22058 3 7.36616 3C8.24119 3 9.08242 3.26303 9.79921 3.75999C10.4996 4.24568 11.0355 4.9206 11.3497 5.71205C11.3896 5.81348 11.4267 5.9178 11.4591 6.02251L10.6968 6.46594C10.6705 6.36076 10.639 6.25597 10.6029 6.15407C10.1172 4.7802 8.8161 3.85672 7.36616 3.85672C5.47233 3.85672 3.93168 5.40347 3.93168 7.30435C3.93168 9.20523 5.47233 10.752 7.36616 10.752C8.10213 10.752 8.80397 10.5209 9.39625 10.0832C9.97632 9.65429 10.4018 9.06671 10.6268 8.38427L10.6292 8.36924L6.4671 5.97892V8.57077L7.90201 7.74081L8.64087 8.16451L6.49011 9.4087L5.72965 8.97373V5.58057L6.48917 5.14137L8.0068 6.01218L8.00633 6.01171H8.00641Z" fill="white"/>
<path d="M21.0001 10.0435C21.0001 10.9079 20.2993 11.6087 19.4348 11.6087C19.1173 11.6087 18.8217 11.5142 18.575 11.3516C18.3282 11.1891 18.1301 10.9585 18.0075 10.6867L16.8741 8.17547C16.8435 8.10754 16.7752 8.06019 16.6958 8.06019C16.6163 8.06019 16.548 8.10762 16.5174 8.17563L15.3841 10.6867C15.1387 11.2304 14.5919 11.6087 13.9567 11.6087C13.0923 11.6087 12.3914 10.9079 12.3914 10.0435C12.3914 9.7259 12.4861 9.43038 12.6486 9.18363C12.8111 8.93687 13.0417 8.73887 13.3135 8.61616L15.8247 7.48278C15.8927 7.4521 15.9399 7.38378 15.9399 7.30435C15.9399 7.22491 15.8926 7.15659 15.8246 7.12599L13.3134 5.99262C12.7697 5.74727 12.3914 5.20046 12.3914 4.56522C12.3914 3.70083 13.0922 3 13.9566 3C14.2742 3 14.5697 3.09462 14.8165 3.25717C15.0633 3.41971 15.2613 3.65019 15.384 3.92207L16.5173 6.4333C16.548 6.50124 16.6163 6.5485 16.6957 6.5485C16.7751 6.5485 16.8435 6.50116 16.8741 6.43315L18.0075 3.92207C18.2529 3.37839 18.7997 3 19.4348 3C20.2993 3 21.0001 3.70083 21.0001 4.56522C21.0001 4.8828 20.9054 5.17831 20.7429 5.42515C20.5803 5.6719 20.3499 5.86998 20.0781 5.99262L17.567 7.12599C17.499 7.15659 17.4515 7.22491 17.4515 7.30435C17.4515 7.39357 17.5085 7.45641 17.5668 7.48278L20.0781 8.61616C20.6217 8.86151 21.0001 9.40831 21.0001 10.0435Z" fill="url(#paint0_linear_824_1315)"/>
<path d="M3.97834 12.7826C3.43803 12.7826 3.00008 13.2205 3.00008 13.7609C3.00008 14.3012 3.43803 14.7391 3.97834 14.7391H8.90259L3.7117 18.1226C3.28323 18.4019 3 18.8852 3 19.4348C3 20.2992 3.70075 21 4.56522 21C5.11477 21 5.5981 20.7167 5.87734 20.2883L9.26095 15.0975V20.0217C9.26095 20.562 9.6989 21 10.2392 21C10.7795 21 11.2175 20.562 11.2175 20.0217V12.7826H3.97834Z" fill="url(#paint1_linear_824_1315)"/>
<path d="M16.8913 12.3913C14.6221 12.3913 12.7826 14.2308 12.7826 16.5V20.6087H16.8913C19.1605 20.6087 21 18.7692 21 16.5C21 14.2308 19.1605 12.3913 16.8913 12.3913Z" fill="url(#paint2_linear_824_1315)"/>
<defs>
<linearGradient id="paint0_linear_824_1315" x1="21.0001" y1="3" x2="12.3914" y2="11.6087" gradientUnits="userSpaceOnUse">
<stop offset="0.2969" stop-color="#4DE36E"/>
<stop offset="1" stop-color="#31AFA7"/>
</linearGradient>
<linearGradient id="paint1_linear_824_1315" x1="11.2175" y1="12.7826" x2="3.00008" y2="21.0001" gradientUnits="userSpaceOnUse">
<stop offset="0.3385" stop-color="#FF60D0"/>
<stop offset="1" stop-color="#A638FE"/>
</linearGradient>
<linearGradient id="paint2_linear_824_1315" x1="21" y1="12.3913" x2="12.7826" y2="20.6087" gradientUnits="userSpaceOnUse">
<stop offset="0.3281" stop-color="#FBDB00"/>
<stop offset="1" stop-color="#FF9959"/>
</linearGradient>
</defs>
</svg>
