<svg width="24" height="24" viewBox="0 0 24 24" fill="none" xmlns="http://www.w3.org/2000/svg">
	<path fill-rule="evenodd" clip-rule="evenodd" d="M16 12C16 14.2091 14.2091 16 12 16C9.79087 16 8.00001 14.2091 8.00001 12C8.00001 9.79087 9.79087 8.00001 12 8.00001C14.2091 8.00001 16 9.79087 16 12ZM14.5 12C14.5 13.3807 13.3807 14.5 12 14.5C10.6193 14.5 9.50001 13.3807 9.50001 12C9.50001 10.6193 10.6193 9.50001 12 9.50001C13.3807 9.50001 14.5 10.6193 14.5 12Z" fill="white"/>
	<path fill-rule="evenodd" clip-rule="evenodd" d="M10.1155 3.3322C10.7461 1.55903 13.2537 1.55903 13.8843 3.3322L13.93 3.46087C14.3271 4.57752 15.6027 5.10587 16.673 4.59706L16.7964 4.53844C18.4961 3.73049 20.2693 5.50367 19.4613 7.20337L19.4027 7.32671C18.8939 8.39709 19.4222 9.67263 20.5389 10.0697L20.6676 10.1155C22.4407 10.7461 22.4407 13.2537 20.6676 13.8843L20.5389 13.93C19.4222 14.3271 18.8939 15.6027 19.4027 16.673L19.4613 16.7964C20.2693 18.4961 18.4961 20.2693 16.7964 19.4613L16.673 19.4027C15.6027 18.8939 14.3271 19.4222 13.93 20.5389L13.8843 20.6676C13.2537 22.4407 10.7461 22.4407 10.1155 20.6676L10.0697 20.5389C9.67263 19.4222 8.39709 18.8939 7.32671 19.4027L7.20337 19.4613C5.50367 20.2693 3.73049 18.4961 4.53844 16.7964L4.59706 16.673C5.10587 15.6027 4.57752 14.3271 3.46087 13.93L3.3322 13.8843C1.55903 13.2537 1.55903 10.7461 3.3322 10.1155L3.46087 10.0697C4.57752 9.67263 5.10587 8.39709 4.59706 7.32671L4.53844 7.20337C3.73049 5.50367 5.50367 3.73049 7.20337 4.53844L7.32671 4.59706C8.39709 5.10587 9.67263 4.57752 10.0697 3.46087L10.1155 3.3322ZM12.471 3.83479L12.5167 3.96346C13.2117 5.91759 15.4439 6.8422 17.317 5.9518L17.4404 5.89317C17.8653 5.69119 18.3086 6.13448 18.1066 6.55941L18.048 6.68274C17.1576 8.55591 18.0822 10.7881 20.0363 11.483L20.165 11.5288C20.6083 11.6864 20.6083 12.3133 20.165 12.471L20.0363 12.5167C18.0822 13.2117 17.1576 15.4439 18.048 17.317L18.1066 17.4404C18.3086 17.8653 17.8653 18.3086 17.4404 18.1066L17.317 18.048C15.4438 17.1576 13.2117 18.0822 12.5167 20.0363L12.471 20.165C12.3133 20.6083 11.6864 20.6083 11.5288 20.165L11.483 20.0363C10.7881 18.0822 8.55591 17.1576 6.68274 18.048L6.55941 18.1066C6.13448 18.3086 5.69119 17.8653 5.89317 17.4404L5.9518 17.317C6.8422 15.4438 5.91759 13.2117 3.96346 12.5167L3.83479 12.471C3.3915 12.3133 3.3915 11.6864 3.83479 11.5288L3.96346 11.483C5.91759 10.7881 6.8422 8.55591 5.9518 6.68274L5.89317 6.55941C5.69119 6.13448 6.13448 5.69119 6.55941 5.89317L6.68274 5.9518C8.55591 6.8422 10.7881 5.91759 11.483 3.96346L11.5288 3.83479C11.6864 3.3915 12.3133 3.3915 12.471 3.83479Z" fill="white"/>
</svg>
