<svg width="24" height="24" viewBox="0 0 24 24" fill="none" xmlns="http://www.w3.org/2000/svg">
<path fill-rule="evenodd" clip-rule="evenodd" d="M13.8843 3.3322C13.2537 1.55903 10.746 1.55903 10.1155 3.3322L10.0697 3.46087C9.67263 4.57752 8.39709 5.10587 7.32671 4.59706L7.20337 4.53844C5.50367 3.73049 3.73049 5.50367 4.53844 7.20337L4.59706 7.32671C5.10587 8.39709 4.57752 9.67263 3.46087 10.0697L3.3322 10.1155C1.55903 10.746 1.55903 13.2537 3.3322 13.8843L3.46087 13.93C4.57752 14.3271 5.10587 15.6027 4.59706 16.673L4.53844 16.7964C3.73049 18.4961 5.50367 20.2693 7.20337 19.4613L7.32671 19.4027C8.39709 18.8939 9.67263 19.4222 10.0697 20.5389L10.1155 20.6676C10.746 22.4407 13.2537 22.4407 13.8843 20.6676L13.93 20.5389C14.3271 19.4222 15.6027 18.8939 16.673 19.4027L16.7964 19.4613C18.4961 20.2693 20.2693 18.4961 19.4613 16.7964L19.4027 16.673C18.8939 15.6027 19.4222 14.3271 20.5389 13.93L20.6676 13.8843C22.4407 13.2537 22.4407 10.746 20.6676 10.1155L20.5389 10.0697C19.4222 9.67263 18.8939 8.39709 19.4027 7.32671L19.4613 7.20337C20.2693 5.50367 18.4961 3.73049 16.7964 4.53844L16.673 4.59706C15.6027 5.10587 14.3271 4.57752 13.93 3.46087L13.8843 3.3322ZM12 16C14.2091 16 16 14.2091 16 12C16 9.79086 14.2091 8 12 8C9.79086 8 8 9.79086 8 12C8 14.2091 9.79086 16 12 16Z" fill="#232323"/>
</svg>
